# xmcd
#
# Track frame offsets:
# 150
# 13490
# 21570
# 36320
# 47092
# 54672
# 65350
# 78607
# 91850
# 102917
# 110667
# 124795
# 164262
# 175660
#
# Disc length: 2462 seconds
#
#
# Revision: 2
# Processed by: cddbd v1.5.2PL0 Copyright (c) Steve Scherf et al.
# Submitted via: FreeRIP 2.51 
#
DISCID=bf099c0e
DTITLE=BILLIE HOLIDAY - GREATEST HITS
DYEAR=1993
DGENRE=Jazz
TTITLE0=billie's blues
TTITLE1=miss brown to you
TTITLE2=don't be late
TTITLE3=lover come back to me
TTITLE4=moonlight in vermont
TTITLE5=ain't nobody's business
TTITLE6=he's funny that way
TTITLE7=my man
TTITLE8=i got it bad and that ain't good
TTITLE9=all of me
TTITLE10=god bless the child
TTITLE11=fine and mellow
TTITLE12=fooling myself
TTITLE13=when your lover has gone
EXTD=
EXTT0=
EXTT1=
EXTT2=
EXTT3=
EXTT4=
EXTT5=
EXTT6=
EXTT7=
EXTT8=
EXTT9=
EXTT10=
EXTT11=
EXTT12=
EXTT13=
PLAYORDER=
